
 #######                         #######                      
 #       ###### ###### #         #       #####  ###### ###### 
 #       #      #      #         #       #    # #      #      
 #####   #####  #####  #         #####   #    # #####  #####  
 #       #      #      #         #       #####  #      #      
 #       #      #      #         #       #   #  #      #      
 #       ###### ###### ######    #       #    # ###### ###### 


Genre:Action | Adventure | Sci-Fi
Language:English
IMDb: 
http://www.imdb.com/title/tt1104001/
Source:NTSC.R1.DVDR
Subtitles:Romana

Format : MPEG-4
Format profile : Base Media
Codec ID : isom
File size : 1.19 GiB
Duration : 2h 5mn
Overall bit rate : 1 358 Kbps
Movie name : Tron.Legacy.2010.DvDRip.x264.Feel-Free

Video
Format settings, CABAC : Yes
Format settings, ReFrames : 4 frames
Format settings, GOP : M=4, N=16
Codec ID : avc1
Codec ID/Info : Advanced Video Coding
Duration : 2h 5mn
Bit rate mode : Variable
Bit rate : 958 Kbps
Width : 720 pixels
Height : 304 pixels
Display aspect ratio : 2.35:1
Frame rate mode : Constant
Frame rate : 23.976 fps
Color space : YUV
Chroma subsampling : 4:2:0
Bit depth : 8 bits
Scan type : Progressive
Bits/(Pixel*Frame) : 0.183
Stream size : 867 MiB (71%)
Writing library : x264

Audio
ID : 2
Format : AAC
Format/Info : Advanced Audio Codec
Format version : Version 4
Format profile : LC
Codec ID : 40
Duration : 2h 5mn
Bit rate mode : Variable
Bit rate : 384 Kbps
Channel(s) : 6 channels
Channel positions : Front: L C R, Side: L R, LFE
Sampling rate : 48.0 KHz
Stream size : 343 MiB (28%)


Plot:
A virtual-world worker looks to take down the Master Control Program






================================== 
http://thepiratebay.org/user/hiest
==================================





Screen Shots:
 
http://www.postimg.com/30000/29299.jpg
 
http://www.postimg.com/30000/29304.jpg
 
http://www.postimg.com/30000/29301.jpg
 
http://www.postimg.com/30000/29300.jpg
 
http://www.postimg.com/30000/29303.jpg
 
http://www.postimg.com/30000/29302.jpg

 #######                         #######                      
 #       ###### ###### #         #       #####  ###### ###### 
 #       #      #      #         #       #    # #      #      
 #####   #####  #####  #         #####   #    # #####  #####  
 #       #      #      #         #       #####  #      #      
 #       #      #      #         #       #   #  #      #      
 #       ###### ###### ######    #       #    # ###### ###### 
